<svg id="svg" version="1.1" width="400" height="400" xmlns="http://www.w3.org/2000/svg" xmlns:xlink="http://www.w3.org/1999/xlink" style="display: block;"><g id="svgg"><path id="path0" d="" stroke="none" fill="#868e96" fill-rule="evenodd"></path><path id="path1" d="" stroke="none" fill="#868e96" fill-rule="evenodd"></path><path id="path2" d="M329.393 8.092 C 315.298 10.394,300.852 20.543,284.407 39.700 C 254.372 74.688,225.313 135.658,215.603 184.064 L 215.169 186.228 216.375 188.964 C 219.265 195.519,221.796 203.194,224.095 212.372 C 224.891 215.550,225.620 218.879,225.591 219.200 C 225.579 219.329,224.919 217.687,224.266 215.900 C 223.624 214.146,221.154 209.090,218.891 204.900 C 215.450 198.529,212.726 193.795,212.587 193.946 C 212.413 194.136,209.454 203.108,207.823 208.393 L 206.621 212.286 207.890 214.893 C 211.565 222.446,215.408 234.377,218.288 247.177 C 219.004 250.360,218.943 250.320,217.721 246.800 C 215.687 240.940,213.189 235.911,206.197 223.603 L 204.324 220.306 203.762 222.503 C 201.272 232.249,199.987 239.658,200.330 242.300 C 200.409 242.909,200.950 244.318,201.714 245.900 C 205.846 254.468,210.339 272.435,214.291 296.200 C 215.444 303.136,215.544 304.463,215.340 310.105 C 214.556 331.692,216.627 361.001,220.113 377.642 C 221.460 384.075,223.889 392.200,224.465 392.200 C 224.606 392.200,226.591 391.159,226.958 390.892 C 226.990 390.869,226.698 389.799,226.308 388.514 C 213.609 346.616,221.124 272.337,245.483 198.989 C 249.360 187.313,257.588 167.563,265.558 150.800 C 286.134 107.525,309.816 71.895,334.086 47.700 C 341.063 40.744,347.029 35.411,342.589 40.098 C 334.328 48.820,324.503 62.597,313.557 80.812 C 294.045 113.281,270.187 162.880,257.861 196.600 C 244.694 232.620,235.371 265.735,229.486 297.390 C 228.593 302.196,228.605 302.229,229.980 298.686 C 236.582 281.672,251.510 266.235,270.500 256.784 L 274.100 254.992 275.570 253.146 C 282.529 244.407,294.015 228.821,302.135 217.100 C 305.970 211.564,310.803 204.336,310.722 204.255 C 310.522 204.056,289.236 209.249,282.600 211.116 C 276.641 212.793,274.123 213.680,268.900 215.943 C 263.389 218.331,263.467 218.298,263.600 218.159 C 263.695 218.059,267.357 215.973,271.700 213.545 C 286.262 205.403,304.068 197.202,315.844 193.215 L 318.587 192.286 319.918 190.193 C 356.523 132.610,374.905 82.754,371.497 50.299 C 368.690 23.574,349.906 4.743,329.393 8.092 " stroke="none" fill="#868e96" fill-rule="evenodd"></path><path id="path3" d="M215.254 311.400 C 215.254 311.895,215.293 312.098,215.341 311.850 C 215.389 311.603,215.389 311.197,215.341 310.950 C 215.293 310.703,215.254 310.905,215.254 311.400 M215.250 329.100 C 215.253 329.540,215.294 329.696,215.341 329.448 C 215.389 329.199,215.387 328.839,215.337 328.648 C 215.287 328.456,215.248 328.660,215.250 329.100 " stroke="none" fill="#868e96" fill-rule="evenodd"></path><path id="path4" d="M54.300 24.938 C 41.032 26.659,31.034 36.050,28.470 49.200 C 28.039 51.410,27.765 318.430,28.189 322.733 C 29.622 337.270,40.590 348.216,55.100 349.591 C 56.584 349.732,83.197 349.800,136.869 349.800 L 216.438 349.800 216.317 348.850 C 215.638 343.482,215.159 328.352,215.229 314.500 L 215.293 302.100 214.455 297.200 C 209.838 270.187,205.074 251.585,200.934 244.400 C 199.933 242.663,200.034 239.695,201.326 232.900 C 201.597 231.470,201.860 230.120,201.908 229.900 C 201.957 229.680,201.945 229.613,201.881 229.750 C 201.790 229.949,185.082 230.000,119.317 230.000 L 36.866 230.000 36.733 177.350 C 36.534 98.465,36.562 54.324,36.814 52.067 C 37.777 43.426,43.656 36.543,52.200 34.054 L 54.100 33.500 172.020 33.400 L 289.940 33.300 294.291 29.050 L 298.643 24.800 176.771 24.830 C 109.742 24.846,54.630 24.895,54.300 24.938 M223.717 212.350 C 223.479 213.489,223.581 214.150,224.265 215.900 C 225.227 218.366,225.373 217.715,224.593 214.432 C 223.917 211.591,223.889 211.525,223.717 212.350 M210.191 230.730 C 212.991 235.475,216.051 241.886,217.527 246.100 C 218.105 247.750,218.582 248.989,218.589 248.854 C 218.622 248.138,216.606 240.091,214.855 233.950 L 213.729 230.000 211.745 230.000 L 209.760 230.000 210.191 230.730 " stroke="none" fill="#868e96" fill-rule="evenodd"></path><path id="path5" d="" stroke="none" fill="#ffffff" fill-rule="evenodd"></path><path id="path6" d="M36.699 106.500 C 36.699 135.870,36.722 147.855,36.750 133.134 C 36.778 118.413,36.778 94.383,36.750 79.734 C 36.722 65.085,36.699 77.130,36.699 106.500 M36.800 196.300 L 36.800 230.000 119.296 230.000 L 201.792 230.000 201.915 229.450 C 202.225 228.058,204.226 220.307,204.293 220.241 C 204.381 220.152,205.515 222.088,208.044 226.642 L 209.900 229.985 211.737 229.992 L 213.574 230.000 213.163 228.750 C 211.144 222.610,209.523 218.461,207.772 214.953 C 207.127 213.662,206.600 212.476,206.600 212.318 C 206.600 211.615,212.378 193.600,212.604 193.600 C 212.875 193.600,220.495 207.490,222.405 211.466 L 223.541 213.832 223.673 212.706 C 223.823 211.435,223.730 211.005,222.097 205.400 C 220.156 198.740,217.834 192.267,215.840 187.959 L 215.034 186.218 215.902 182.159 C 217.193 176.122,219.580 166.600,220.718 162.950 C 220.822 162.617,216.354 162.600,128.813 162.600 L 36.800 162.600 36.800 196.300 " stroke="none" fill="#ffffff" fill-rule="evenodd"></path><path id="path7" d="M56.350 33.541 C 56.598 33.589,57.002 33.589,57.250 33.541 C 57.498 33.493,57.295 33.454,56.800 33.454 C 56.305 33.454,56.102 33.493,56.350 33.541 M42.687 39.650 L 42.100 40.300 42.750 39.713 C 43.356 39.165,43.492 39.000,43.337 39.000 C 43.303 39.000,43.010 39.293,42.687 39.650 M36.800 123.500 L 36.800 162.600 128.776 162.600 L 220.753 162.600 221.285 160.850 C 229.089 135.171,239.881 109.666,252.995 85.909 L 253.828 84.400 145.314 84.400 L 36.800 84.400 36.800 123.500 " stroke="none" fill="#ffffff" fill-rule="evenodd"></path><path id="path8" d="M55.700 33.616 C 47.616 34.258,40.367 40.013,37.833 47.800 C 36.833 50.875,36.800 51.535,36.800 68.526 L 36.800 84.400 145.279 84.400 L 253.758 84.400 254.912 82.350 C 264.991 64.455,276.605 48.083,288.891 34.450 L 289.837 33.400 173.769 33.428 C 109.931 33.444,56.800 33.528,55.700 33.616 " stroke="none" fill="#ffffff" fill-rule="evenodd"></path><path id="path9" d="" stroke="none" fill="#868e96" fill-rule="evenodd"></path></g></svg>